<?xml version="1.0" standalone="no"?>
<!DOCTYPE svg PUBLIC "-//W3C//DTD SVG 20010904//EN"
 "http://www.w3.org/TR/2001/REC-SVG-20010904/DTD/svg10.dtd">
<svg version="1.0" xmlns="http://www.w3.org/2000/svg"
 width="2543.000000pt" height="1025.000000pt" viewBox="0 0 2543.000000 1025.000000"
 preserveAspectRatio="xMidYMid meet">

<g transform="translate(0.000000,1025.000000) scale(0.100000,-0.100000)"
fill="#000000" stroke="none">
<path d="M870 9385 l0 -505 -159 0 c-91 0 -172 -5 -192 -11 -47 -16 -97 -66
-109 -109 -5 -19 -10 -150 -10 -290 0 -246 1 -258 23 -300 26 -52 59 -78 113
-90 51 -12 487 -12 538 0 49 11 85 37 111 81 17 29 20 57 23 196 l4 163 1582
0 c1733 0 1664 2 1914 -61 639 -159 1046 -592 1188 -1261 32 -152 44 -469 25
-638 -33 -283 -116 -522 -256 -735 -242 -369 -675 -631 -1199 -725 -106 -19
-161 -20 -1743 -20 l-1633 0 0 253 c0 286 -4 303 -76 344 -38 22 -46 23 -380
23 -337 0 -341 0 -374 -22 -18 -13 -43 -36 -54 -51 -20 -28 -21 -39 -21 -381
l0 -353 27 -35 c50 -66 63 -68 377 -68 l281 0 0 -2230 0 -2230 895 0 895 0 0
1680 0 1680 875 0 c715 0 902 3 1023 15 416 44 746 113 1077 225 199 68 291
107 478 202 873 445 1410 1214 1568 2243 42 278 37 770 -11 1089 -111 726
-473 1318 -1060 1733 -533 376 -1284 619 -2109 683 -86 6 -774 10 -1883 10
l-1748 0 0 -505z" fill="#1E3767"/>
<path d="M8750 9885 c0 -3 676 -1044 1503 -2313 827 -1269 1507 -2312 1510
-2319 4 -7 -661 -1046 -1578 -2465 l-1585 -2453 833 -3 c804 -2 834 -2 897 18
126 37 273 156 394 316 33 45 547 876 1141 1847 594 972 1084 1765 1089 1764
8 -3 1684 -2761 2104 -3462 117 -196 149 -241 217 -310 84 -84 158 -131 254
-159 48 -14 161 -16 968 -16 502 0 913 2 913 4 0 3 -697 1104 -1548 2448 -852
1344 -1560 2462 -1575 2485 l-26 41 1529 2286 c842 1258 1530 2289 1530 2292
0 3 -393 2 -872 -2 -818 -6 -876 -8 -928 -26 -75 -25 -148 -76 -204 -140 -25
-29 -533 -833 -1129 -1787 -595 -953 -1086 -1734 -1092 -1734 -12 0 -2044
3267 -2108 3388 -77 148 -216 262 -357 294 -46 11 -1880 16 -1880 6z" fill="#1E3767"/>
<path d="M19580 5110 l0 -4780 2790 0 2790 0 0 735 0 735 -1905 0 -1905 0 0
4045 0 4045 -885 0 -885 0 0 -4780z" fill="#1E3767"/>
<path d="M1243 7988 c-51 -25 -54 -50 -51 -414 l3 -336 33 -29 c18 -16 38 -29
45 -29 6 0 58 96 114 213 56 117 144 301 197 410 l95 197 -207 -1 c-124 0
-216 -5 -229 -11z" fill="#1E3767"/>
<path d="M2461 7276 c-47 -26 -50 -46 -51 -288 0 -151 4 -236 12 -252 10 -24
55 -62 63 -54 2 2 65 131 140 288 75 157 141 293 146 303 9 16 0 17 -138 17
-104 -1 -155 -5 -172 -14z" fill="#1E3767"/>
<path d="M1129 6641 l-29 -29 0 -442 0 -442 30 -29 c21 -21 38 -29 55 -27 23
3 48 49 256 478 127 261 235 485 240 498 l9 22 -266 0 -266 0 -29 -29z" fill="#1E3767"/>
</g>
</svg>
